HIERARCHY
ROOT Hips
{
	OFFSET 0.000000 0.000000 0.000000
	CHANNELS 6 Xposition Yposition Zposition Zrotation Yrotation Xrotation 
	JOINT LHipJoint
	{
		OFFSET 0.000000 0.000000 0.000000
		CHANNELS 3 Zrotation Yrotation Xrotation
		JOINT LeftUpLeg
		{
			OFFSET 1.363060 -1.794630 0.839290
			CHANNELS 3 Zrotation Yrotation Xrotation
			JOINT LeftLeg
			{
				OFFSET 2.448110 -6.726130 0.000000
				CHANNELS 3 Zrotation Yrotation Xrotation
				JOINT LeftFoot
				{
					OFFSET 2.562200 -7.039590 0.000000
					CHANNELS 3 Zrotation Yrotation Xrotation
					JOINT LeftToeBase
					{
						OFFSET 0.157640 -0.433110 2.322550
						CHANNELS 3 Zrotation Yrotation Xrotation
						End Site
						{
							OFFSET 0.000000 0.000000 0.000000
						}
					}
				}
			}
		}
	}
	JOINT RHipJoint
	{
		OFFSET 0.000000 0.000000 0.000000
		CHANNELS 3 Zrotation Yrotation Xrotation
		JOINT RightUpLeg
		{
			OFFSET -1.305520 -1.794630 0.839290
			CHANNELS 3 Zrotation Yrotation Xrotation
			JOINT RightLeg
			{
				OFFSET -2.542530 -6.985550 0.000000
				CHANNELS 3 Zrotation Yrotation Xrotation
				JOINT RightFoot
				{
					OFFSET -2.568260 -7.056230 0.000000
					CHANNELS 3 Zrotation Yrotation Xrotation
					JOINT RightToeBase
					{
						OFFSET -0.164730 -0.452590 2.363150
						CHANNELS 3 Zrotation Yrotation Xrotation
						End Site
						{
							OFFSET 0.000000 0.000000 0.000000
						}
					}
				}
			}
		}
	}
	JOINT LowerBack
	{
		OFFSET 0.000000 0.000000 0.000000
		CHANNELS 3 Zrotation Yrotation Xrotation
		JOINT Spine
		{
			OFFSET 0.028270 2.035590 -0.193380
			CHANNELS 3 Zrotation Yrotation Xrotation
			JOINT Spine1
			{
				OFFSET 0.056720 2.048850 -0.042750
				CHANNELS 3 Zrotation Yrotation Xrotation
				JOINT Neck
				{
					OFFSET 0.000000 0.000000 0.000000
					CHANNELS 3 Zrotation Yrotation Xrotation
					JOINT Neck1
					{
						OFFSET -0.054170 1.746240 0.172020
						CHANNELS 3 Zrotation Yrotation Xrotation
						JOINT Head
						{
							OFFSET 0.104070 1.761360 -0.123970
							CHANNELS 3 Zrotation Yrotation Xrotation
							End Site
							{
								OFFSET 0.000000 0.000000 0.000000
							}
						}
					}
				}
				JOINT LeftShoulder
				{
					OFFSET 0.000000 0.000000 0.000000
					CHANNELS 3 Zrotation Yrotation Xrotation
					JOINT LeftArm
					{
						OFFSET 3.362410 1.200890 -0.311210
						CHANNELS 3 Zrotation Yrotation Xrotation
						JOINT LeftForeArm
						{
							OFFSET 4.983000 -0.000000 -0.000000
							CHANNELS 3 Zrotation Yrotation Xrotation
							JOINT LeftHand
							{
								OFFSET 3.483560 -0.000000 -0.000000
								CHANNELS 3 Zrotation Yrotation Xrotation
								JOINT LeftFingerBase
								{
									OFFSET 0.000000 0.000000 0.000000
									CHANNELS 3 Zrotation Yrotation Xrotation
									JOINT LeftHandIndex1
									{
										OFFSET 0.715260 -0.000000 -0.000000
										CHANNELS 3 Zrotation Yrotation Xrotation
										End Site
										{
											OFFSET 0.000000 0.000000 0.000000
										}
									}
								}
								JOINT LThumb
								{
									OFFSET 0.000000 0.000000 0.000000
									CHANNELS 3 Zrotation Yrotation Xrotation
									End Site
									{
										OFFSET 0.000000 0.000000 0.000000
									}
								}
							}
						}
					}
				}
				JOINT RightShoulder
				{
					OFFSET 0.000000 0.000000 0.000000
					CHANNELS 3 Zrotation Yrotation Xrotation
					JOINT RightArm
					{
						OFFSET -3.136600 1.374050 -0.404650
						CHANNELS 3 Zrotation Yrotation Xrotation
						JOINT RightForeArm
						{
							OFFSET -5.241900 -0.000000 -0.000000
							CHANNELS 3 Zrotation Yrotation Xrotation
							JOINT RightHand
							{
								OFFSET -3.444170 -0.000000 -0.000000
								CHANNELS 3 Zrotation Yrotation Xrotation
								JOINT RightFingerBase
								{
									OFFSET 0.000000 0.000000 0.000000
									CHANNELS 3 Zrotation Yrotation Xrotation
									JOINT RightHandIndex1
									{
										OFFSET -0.622530 -0.000000 -0.000000
										CHANNELS 3 Zrotation Yrotation Xrotation
										End Site
										{
											OFFSET 0.000000 0.000000 0.000000
										}
									}
								}
								JOINT RThumb
								{
									OFFSET 0.000000 0.000000 0.000000
									CHANNELS 3 Zrotation Yrotation Xrotation
									End Site
									{
										OFFSET 0.000000 0.000000 0.000000
									}
								}
							}
						}
					}
				}
			}
		}
	}
}
MOTION
Frames: 7
Frame Time: 0.033333
-0.009928 17.098754 -2.458344 0.972955 -18.805947 9.989870 -12.706515 0.238877 4.746340 -8.647365 -2.202516 -37.574570 3.711554 4.120191 46.744203 1.196074 6.829640 2.222565 -0.760693 0.129584 -36.115741 15.154092 -3.780839 1.920753 9.816467 5.439581 -26.260571 -5.454038 4.971675 26.015947 -0.369574 -6.452251 -17.750214 0.644256 0.023251 -34.250717 -1.651306 6.130147 -6.286615 -0.927475 0.022491 -4.283679 -4.458211 -1.089195 4.460262 8.520139 -11.064986 -15.014848 -1.920422 -0.175796 -1.625019 0.000341 -0.003813 0.055394 0.465752 21.818834 0.759682 -67.511957 10.308980 5.007555 0.202215 -50.445572 -0.853767 4.817139 -3.207464 -0.122588 -0.175202 0.008420 -0.059749 0.013047 -0.042159 0.023786 -0.039129 0.111147 -0.016673 6.305395 -7.091718 1.993265 55.269986 10.827150 -25.669579 -1.316636 47.702626 -2.407378 -7.920358 8.852106 -0.727089 0.229557 -0.385308 -0.040330 0.082104 -0.033797 -0.024434 -0.005256 0.006266 0.046137 
-0.007376 17.109767 -2.416814 0.573238 -18.732048 8.129333 -12.908842 0.331416 6.671280 -6.348811 -0.960188 -34.416178 0.531203 5.092333 41.803325 1.508395 4.833900 -1.679768 -0.635607 0.172653 -34.497115 13.310913 -2.672615 3.672041 10.496421 5.671782 -27.384682 -3.960010 1.790127 29.163111 0.263681 -6.812625 -16.937038 0.579213 0.064807 -34.569336 -1.126559 4.080601 -2.130151 0.750168 -1.370567 -4.491394 -5.395277 -1.391420 4.353418 8.666239 -11.170873 -12.344241 -2.114682 -0.219290 -1.017779 0.012954 0.014463 0.043445 1.654958 21.448245 1.644346 -66.809849 7.480530 4.072783 -4.446672 -54.354450 2.747279 4.860479 -4.312484 -0.188649 -0.219961 0.048745 -0.049028 0.013347 -0.042193 0.017091 -0.024626 0.102727 -0.007100 6.662475 -9.593256 8.677964 56.067916 13.693621 -20.905217 -3.509314 52.113845 -2.777249 -8.281092 9.810023 -0.811457 0.245054 -0.436906 -0.040429 0.081923 -0.034444 -0.030082 0.003682 0.023077 0.044833 
0.006336 17.155133 -2.355173 -2.176235 -20.384494 7.899302 -12.421633 0.535121 6.974232 -5.453518 -0.948526 -31.665972 3.343682 4.947443 39.137400 1.112682 5.529704 -3.672853 -0.361606 0.105045 -34.486384 13.899998 -1.119493 4.786961 10.425867 5.013612 -27.143471 -0.954769 -0.729173 29.026275 0.084632 -5.392542 -15.076354 0.314866 0.062434 -37.778974 2.963116 1.349539 1.635102 0.855695 -1.641506 -4.519556 -5.864891 -0.805147 3.678381 8.605524 -11.305713 -11.683713 -2.286342 -0.280498 -0.536275 0.023752 0.017427 0.048949 2.623161 19.383645 2.129595 -63.203226 3.566399 2.274927 -4.118741 -54.336963 2.067671 5.230162 -4.434994 -0.228376 -0.226685 -0.002375 -0.043585 -0.000411 -0.036031 0.006688 -0.013527 0.104795 0.011136 8.440463 -12.324476 12.501092 56.937022 15.953065 -15.674859 -4.630882 52.142463 -2.369708 -8.092669 10.064149 -0.787379 0.236368 -0.506362 -0.050124 0.076490 -0.036735 -0.040089 -0.005253 0.030385 0.024894 
0.019604 17.224995 -2.283278 -1.373914 -20.636955 7.796027 -12.988511 1.115870 6.156017 -8.057968 1.840175 -31.751820 3.605730 0.564422 39.547176 1.118975 6.357538 -2.167878 -0.176630 0.103140 -36.421776 13.961582 -0.498779 5.967515 8.889733 4.691035 -27.976747 -1.127027 -2.205451 27.540822 -0.486464 -4.230915 -13.605205 0.250125 0.036395 -43.176234 0.173933 -5.717873 2.130891 0.965717 -0.629903 -4.365629 -5.692815 -0.879383 2.352586 9.396781 -12.165382 -11.038353 -2.298171 -0.291753 -0.574722 0.027567 0.019274 0.042887 3.102234 18.012602 2.170874 -60.408151 2.297887 -0.949718 -3.956044 -47.398951 0.813746 4.733850 -4.207290 -0.237499 -0.242790 0.216286 -0.032372 -0.014999 -0.016934 -0.021750 -0.010272 0.109813 0.031916 10.025075 -13.360341 12.498610 58.429827 14.552137 -9.114362 -6.813992 53.727117 -4.043795 -8.053053 10.628727 -0.829565 0.262683 -0.558436 -0.063614 0.070609 -0.018494 -0.047107 -0.010056 0.047414 0.007124 
0.035057 17.304793 -2.218977 0.020214 -22.674034 8.685249 -13.006108 0.411705 6.390157 -8.569983 2.649401 -31.631038 2.070200 2.448774 36.072111 1.333741 6.051120 -1.814801 0.151992 0.051238 -38.978202 15.215011 0.248085 5.840660 5.594429 4.637649 -26.898941 -0.950973 -1.825814 23.538380 -1.128259 -2.923581 -12.792920 0.368727 -0.041984 -47.958947 -0.769323 -4.712080 -1.923251 0.264504 -1.464156 -4.476662 -5.524988 -0.393590 2.326250 8.744633 -13.218547 -10.313349 -2.504367 -0.275606 -0.572722 0.018724 0.015994 0.030929 3.936189 15.873989 1.922251 -56.370926 1.663705 -2.590249 -1.923175 -43.036454 -1.488478 5.035015 -4.106542 -0.248671 -0.248491 0.212261 -0.027298 -0.026413 -0.001473 -0.031956 -0.018761 0.115228 0.038580 8.708995 -16.363285 7.281962 60.181773 10.692755 -5.815072 -5.372438 58.319746 -3.561642 -8.429977 10.993377 -0.908344 0.212611 -0.496350 -0.063867 0.049984 0.005305 -0.059305 -0.008604 0.055228 -0.001342 
0.058138 17.380307 -2.180011 2.883657 -25.254382 8.260615 -12.371594 0.497194 6.808658 -11.279876 6.199231 -31.342215 -3.371403 0.856914 32.418288 1.405109 6.447849 -1.267336 0.410204 0.055828 -41.318737 14.598436 0.453179 6.449974 3.006073 4.403759 -27.132926 -0.704821 -1.649199 21.013982 -1.369416 -0.976185 -10.957256 0.731350 -0.123846 -52.057581 -3.105695 -2.864405 -3.431753 -2.128814 -2.800162 -5.581619 -5.296192 -2.964904 3.712891 8.734191 -14.290532 -10.235029 -2.519748 -0.234126 -0.874274 0.005535 0.032990 0.020196 5.463371 15.823703 1.958174 -53.006968 0.912783 -8.740310 -2.832200 -41.567137 -1.117476 5.326779 -4.287208 -0.275897 -0.186772 0.274778 -0.021393 -0.034084 0.009629 -0.048024 -0.038317 0.122977 0.052798 9.131366 -15.485694 -1.040096 63.883488 5.453562 -3.768133 -4.104274 64.382197 -3.705818 -8.573821 11.426442 -0.975774 0.212500 -0.473433 -0.077135 0.036387 0.040791 -0.061536 0.003309 0.063250 -0.016836 
0.091423 17.443864 -2.175552 2.304440 -28.815218 9.450006 -12.693861 1.240968 7.061058 -13.663871 9.411181 -32.862809 -1.705050 -2.619284 30.156774 1.463574 7.139220 -1.899464 0.637567 -0.020649 -43.007354 13.951381 0.870665 6.390404 3.607224 4.769527 -28.399053 0.597783 -1.488765 21.249985 -1.321954 0.885712 -7.639064 1.081274 -0.188359 -55.298417 -2.873509 -1.528194 -7.774078 -2.865854 -4.101605 -2.677517 -4.819636 -4.810289 3.371415 9.103413 -15.675575 -10.107198 -1.912042 -0.191107 -1.021337 -0.010016 0.046663 0.021722 5.252355 15.119096 1.761978 -51.263424 1.872818 -15.770602 -3.189322 -40.529783 -0.223731 6.556600 -3.823342 -0.293014 -0.145665 0.312172 -0.026391 -0.021114 0.017496 -0.032901 -0.043322 0.145206 0.057848 8.204984 -16.623291 -7.767455 67.138579 3.402785 -1.030146 -3.006193 68.351815 -3.100425 -7.777964 11.104780 -0.866118 0.157394 -0.501301 -0.068515 0.039160 0.044376 -0.066487 0.009579 0.056223 -0.018766 
